{"title":"Mindhunters (2004) BDRip 1080p Dual Audio [ Hindi 2.0-Eng 5.1] x","uid":15129097,"size":4176834072,"categoryP":"video","categoryS":"hd___movies","magnet":"?xt=urn:btih:2cdc48993078a6f62aba33f1110e268ac1caefd6&amp;dn=Mindhunters+%282004%29+BDRip+1080p+Dual+Audio+%5B+Hindi+2.0-Eng+5.1%5D+x&amp;tr=udp%3A%2F%2Ftracker.leechers-paradise.org%3A6969&amp;tr=udp%3A%2F%2Fzer0day.ch%3A1337&amp;tr=udp%3A%2F%2Fopen.demonii.com%3A1337&amp;tr=udp%3A%2F%2Ftracker.coppersurfer.tk%3A6969&amp;tr=udp%3A%2F%2Fexodus.desync.com%3A6969","seeders":0,"leechers":2,"uploader":"Nitish01","files":9,"time":1467135608,"description":":GENERAL INFO:\r\nFormat : Matroska\r\nFormat : Matroska\r\nFile size : 3.83 GiB\r\nDuration : 1h 45mn\r\nOverall bit rate mode : Variable\r\nOverall bit rate : 5 173 Kbps\r\nFrontend And Writing Library : megui\r\nMovie name :Mindhunters (2004) BDRip 1080p Dual Audio [ Hindi 2.0-Eng 5.1] x264-NITISH_GOYAL.mkv\r\n\r\n\r\n:VIDEO INFO:\r\nID : 1\r\nFormat : AVC\r\nFormat/Info : Advanced Video Codec\r\nFormat profile :   \r\nFormat settings, CABAC : Yes\r\nFormat settings, ReFrames : 5 frames\r\nCodec ID : V_MPEG4/ISO/AVC\r\nDuration : 1h 45mn\r\nBit rate mode : Variable\r\nBit rate : 4 500 Kbps\r\nMaximum bit rate : 40.0 Mbps\r\nWidth : 1 912 pixels\r\nHeight : 816 pixels\r\nDisplay aspect ratio : 2.35:1\r\nFrame rate mode : Constant\r\nFrame rate : 23.976 fps\r\nStream size : 3.33 Gib\r\nLanguage : English\r\nDefault : Yes\r\nForced : No\r\n\r\n\r\n\r\n:AUDIO #1:\r\nID : 2\r\nFormat : AC3\r\nFormat/Info : Audio Coding 3\r\nMode extension : CM (complete main)\r\nFormat settings, Endianness : Big\r\nCodec ID : AC-3\r\nDuration : 1h 45mn\r\nBit rate mode : Constant\r\nBit rate : 224 Kbps\r\nChannel(s) : 2 channels\r\nSampling rate : 48.0 KHz\r\nBit depth : 16 bits\r\nCompression mode : Lossy\r\n\r\nStream size : 170 MiB\r\nTitle : Nitish Goyal\r\nLanguage : Hindi\r\nDefault : Yes\r\nForced : Yes\r\n\r\n\r\n:AUDIO #2:\r\nID : 3\r\nFormat : AC-3\r\nFormat/Info : Audio Coding 3\r\nMode extension : CM (complete main)\r\nFormat settings, Endianness : Big\r\nCodec ID : A_AC3\r\nDuration : 1h 45mn\r\nBit rate mode : Constant\r\nBit rate : 448 Kbps\r\nChannel(s) : 6 channels\r\nSampling rate : 48.0 KHz\r\nBit depth : 16 bits\r\nCompression mode : Lossy\r\nStream size : 339 MiB\r\nTitle : By Nitish\r\nLanguage : English\r\nDefault : No\r\nForced : No","torrent":{"xt":"urn:btih:2cdc48993078a6f62aba33f1110e268ac1caefd6","amp;dn":"Mindhunters+%282004%29+BDRip+1080p+Dual+Audio+%5B+Hindi+2.0-Eng+5.1%5D+x","amp;tr":["udp%3A%2F%2Ftracker.leechers-paradise.org%3A6969","udp%3A%2F%2Fzer0day.ch%3A1337","udp%3A%2F%2Fopen.demonii.com%3A1337","udp%3A%2F%2Ftracker.coppersurfer.tk%3A6969","udp%3A%2F%2Fexodus.desync.com%3A6969"],"infoHash":"2cdc48993078a6f62aba33f1110e268ac1caefd6","infoHashBuffer":{"type":"Buffer","data":[44,220,72,153,48,120,166,246,42,186,51,241,17,14,38,138,193,202,239,214]},"announce":[],"urlList":[]}}